<?xml version="1.0" encoding="utf-8"?>
<!-- Generator: Adobe Illustrator 24.0.1, SVG Export Plug-In . SVG Version: 6.00 Build 0)  -->
<svg version="1.1" id="Capa_1" xmlns="http://www.w3.org/2000/svg" xmlns:xlink="http://www.w3.org/1999/xlink" x="0px" y="0px"
	 viewBox="0 0 24 20.11" enable-background="new 0 0 24 20.11" xml:space="preserve">
<g>
	<path fill="#FBD157" d="M0.02,18.55C0.01,18.8,0,19.06,0,19.33s0.01,0.52,0.02,0.78h4.48c-0.03-0.26-0.04-0.52-0.04-0.78
		c0-0.26,0.01-0.52,0.04-0.78H0.02z"/>
	<path fill="#FBD157" d="M23.98,18.55h-4.48c0.03,0.26,0.04,0.52,0.04,0.78c0,0.26-0.01,0.52-0.04,0.78h4.48
		c0.02-0.26,0.02-0.52,0.02-0.78S23.99,18.8,23.98,18.55z"/>
	<path fill="#FBD157" d="M16.53,15.9c-0.16-0.21-0.33-0.4-0.51-0.59c-0.18-0.18-0.38-0.36-0.59-0.51c-0.76-0.57-1.66-0.96-2.65-1.1
		c-0.25-0.04-0.52-0.05-0.78-0.05c-0.26,0-0.52,0.02-0.78,0.05c-0.99,0.14-1.89,0.52-2.65,1.1c-0.21,0.16-0.4,0.33-0.59,0.51
		c-0.18,0.18-0.36,0.38-0.51,0.59c-0.57,0.76-0.96,1.66-1.1,2.65c-0.04,0.25-0.05,0.52-0.05,0.78c0,0.26,0.02,0.52,0.05,0.78h11.25
		c0.04-0.26,0.05-0.52,0.05-0.78c0-0.26-0.02-0.52-0.05-0.78C17.49,17.56,17.1,16.66,16.53,15.9z"/>
	<path fill="#FBD157" d="M6.67,6.45L7.23,7L11.22,3v8.83c0.26-0.03,0.52-0.04,0.78-0.04c0.26,0,0.52,0.01,0.78,0.04V2.97L16.81,7
		l0.55-0.55l0.55-0.55l-5.13-5.13L12.02,0l-0.8,0.8l-5.1,5.1L6.67,6.45L6.67,6.45z"/>
	<path fill="#FBD157" d="M7.25,13.48l-3.17-3.17c-0.2,0.17-0.38,0.35-0.57,0.53c-0.18,0.18-0.36,0.37-0.53,0.57l3.17,3.17
		c0.16-0.2,0.34-0.4,0.52-0.58C6.86,13.82,7.05,13.64,7.25,13.48z"/>
	<path fill="#FBD157" d="M20.48,10.84c-0.18-0.18-0.37-0.36-0.57-0.53l-3.17,3.17c0.2,0.16,0.4,0.34,0.58,0.52
		c0.18,0.18,0.36,0.38,0.52,0.58l3.17-3.17C20.85,11.22,20.67,11.03,20.48,10.84z"/>
</g>
</svg>
